<?xml version="1.0" encoding="UTF-8" standalone="no"?>
<!-- Created with Inkscape (http://www.inkscape.org/) -->

<svg
   version="1.1"
   id="svg1"
   width="1042.52"
   height="239.38667"
   viewBox="0 0 1042.52 239.38667"
   sodipodi:docname="TNQTech Logo.eps"
   xmlns:inkscape="http://www.inkscape.org/namespaces/inkscape"
   xmlns:sodipodi="http://sodipodi.sourceforge.net/DTD/sodipodi-0.dtd"
   xmlns="http://www.w3.org/2000/svg"
   xmlns:svg="http://www.w3.org/2000/svg">
  <defs
     id="defs1">
    <linearGradient
       x1="0"
       y1="0"
       x2="1"
       y2="0"
       gradientUnits="userSpaceOnUse"
       gradientTransform="matrix(-1811.94,-1811.94,1811.94,-1811.94,1120.83,2615.02)"
       spreadMethod="pad"
       id="linearGradient4">
      <stop
         style="stop-opacity:1;stop-color:#47aedc"
         offset="0"
         id="stop2" />
      <stop
         style="stop-opacity:1;stop-color:#47aedc"
         offset="0.40133024"
         id="stop3" />
      <stop
         style="stop-opacity:1;stop-color:#1c3842"
         offset="1"
         id="stop4" />
    </linearGradient>
    <clipPath
       clipPathUnits="userSpaceOnUse"
       id="clipPath4">
      <path
         d="M 235.332,1572.2 78.0156,1414.88 -79.3047,1572.2 78.0156,1729.52 Z"
         transform="translate(0,2.5000001e-5)"
         id="path4" />
    </clipPath>
    <linearGradient
       x1="0"
       y1="0"
       x2="1"
       y2="0"
       gradientUnits="userSpaceOnUse"
       gradientTransform="matrix(-1261.97,-1858.54,1858.54,-1261.97,1407.66,2170.3)"
       spreadMethod="pad"
       id="linearGradient7">
      <stop
         style="stop-opacity:1;stop-color:#47aedc"
         offset="0"
         id="stop5" />
      <stop
         style="stop-opacity:1;stop-color:#47aedc"
         offset="0.02078866"
         id="stop6" />
      <stop
         style="stop-opacity:1;stop-color:#1c3842"
         offset="1"
         id="stop7" />
    </linearGradient>
    <clipPath
       clipPathUnits="userSpaceOnUse"
       id="clipPath7">
      <path
         d="M 2006.65,1654.53 1295.78,607.602 -3.55859,1489.87 707.316,2536.8 Z"
         transform="translate(0,2.5000001e-5)"
         id="path7" />
    </clipPath>
    <clipPath
       clipPathUnits="userSpaceOnUse"
       id="clipPath8">
      <path
         d="M 0,0 H 7819 V 1795 H 0 Z"
         transform="matrix(0.13333333,0,0,-0.13333333,0,239.38667)"
         id="path8" />
    </clipPath>
    <linearGradient
       x1="0"
       y1="0"
       x2="1"
       y2="0"
       gradientUnits="userSpaceOnUse"
       gradientTransform="matrix(-1811.94,-1811.94,1811.94,-1811.94,2747.15,1254.26)"
       spreadMethod="pad"
       id="linearGradient12">
      <stop
         style="stop-opacity:1;stop-color:#47aedc"
         offset="0"
         id="stop10" />
      <stop
         style="stop-opacity:1;stop-color:#47aedc"
         offset="0.40133024"
         id="stop11" />
      <stop
         style="stop-opacity:1;stop-color:#1c3842"
         offset="1"
         id="stop12" />
    </linearGradient>
    <clipPath
       clipPathUnits="userSpaceOnUse"
       id="clipPath12">
      <path
         d="M 1874.74,223.199 1716.09,64.5391 1557.44,223.199 1716.09,381.852 Z"
         transform="translate(0,2.5000001e-5)"
         id="path12" />
    </clipPath>
    <linearGradient
       x1="0"
       y1="0"
       x2="1"
       y2="0"
       gradientUnits="userSpaceOnUse"
       gradientTransform="matrix(-1689.33,-1829.04,1829.04,-1689.33,1560.84,1615.61)"
       spreadMethod="pad"
       id="linearGradient15">
      <stop
         style="stop-opacity:1;stop-color:#47aedc"
         offset="0"
         id="stop13" />
      <stop
         style="stop-opacity:1;stop-color:#47aedc"
         offset="0.0308575"
         id="stop14" />
      <stop
         style="stop-opacity:1;stop-color:#1c3842"
         offset="1"
         id="stop15" />
    </linearGradient>
    <clipPath
       clipPathUnits="userSpaceOnUse"
       id="clipPath15">
      <path
         d="M 2017.92,915.328 968.887,-220.461 -222.512,879.93 826.523,2015.72 Z"
         transform="translate(0,2.5000001e-5)"
         id="path15" />
    </clipPath>
    <linearGradient
       x1="0"
       y1="0"
       x2="1"
       y2="0"
       gradientUnits="userSpaceOnUse"
       gradientTransform="matrix(-1298.27,-1924.03,1924.03,-1298.27,1648.72,1489.29)"
       spreadMethod="pad"
       id="linearGradient18">
      <stop
         style="stop-opacity:1;stop-color:#47aedc"
         offset="0"
         id="stop16" />
      <stop
         style="stop-opacity:1;stop-color:#47aedc"
         offset="0.40133024"
         id="stop17" />
      <stop
         style="stop-opacity:1;stop-color:#1c3842"
         offset="1"
         id="stop18" />
    </linearGradient>
    <clipPath
       clipPathUnits="userSpaceOnUse"
       id="clipPath18">
      <path
         d="M 1795.77,306.738 1091.73,-736.641 -206.953,139.66 497.086,1183.05 Z"
         transform="translate(0,2.5000001e-5)"
         id="path18" />
    </clipPath>
  </defs>
  <sodipodi:namedview
     id="namedview1"
     pagecolor="#ffffff"
     bordercolor="#000000"
     borderopacity="0.25"
     inkscape:showpageshadow="2"
     inkscape:pageopacity="0.0"
     inkscape:pagecheckerboard="0"
     inkscape:deskcolor="#d1d1d1">
    <inkscape:page
       x="0"
       y="0"
       inkscape:label="1"
       id="page1"
       width="1042.52"
       height="239.38667"
       margin="0"
       bleed="0" />
  </sodipodi:namedview>
  <g
     id="g1"
     inkscape:groupmode="layer"
     inkscape:label="1">
    <g
       id="group-R5">
      <g
         id="g5">
        <path
           d="m 73,1492 v 1 h -8 v 1 h -5 v 1 h -3 v 1 h -3 v 1 h -3 v 1 h -4 v 1 h -1 v 1 h -2 v 1 h -2 v 1 h -2 v 1 h -2 v 1 h -2 v 1 h -1 v 1 h -2 v 1 h -1 v 1 h -1 v 1 h -1 v 1 h -2 v 1 h -1 v 1 h -1 v 1 h -1 v 1 h -1 v 1 h -2 v 2 h -1 v 1 h -1 v 1 h -1 v 1 h -1 v 2 h -1 v 1 h -1 v 1 h -1 v 1 h -1 v 2 h -1 v 1 h -1 v 2 h -1 v 2 h -1 v 2 H 9 v 1 H 8 v 2 H 7 v 2 H 6 v 2 H 5 v 4 H 4 v 3 H 3 v 3 H 2 v 3 H 1 v 6 H 0 v 24 h 1 v 6 h 1 v 3 h 1 v 4 h 1 v 3 h 1 v 3 h 1 v 2 h 1 v 2 h 1 v 2 h 1 v 2 h 1 v 2 h 1 v 2 h 1 v 1 h 1 v 2 h 1 v 1 h 1 v 1 h 1 v 2 h 1 v 1 h 1 v 1 h 1 v 1 h 1 v 1 h 1 v 2 h 1 v 1 h 1 v 1 h 1 v 1 h 2 v 1 h 1 v 1 h 1 v 1 h 1 v 1 h 1 v 1 h 2 v 1 h 1 v 1 h 1 v 1 h 2 v 1 h 2 v 1 h 1 v 1 h 2 v 1 h 2 v 1 h 2 v 1 h 2 v 1 h 2 v 1 h 4 v 1 h 3 v 1 h 3 v 1 h 3 v 1 h 8 v 1 h 16 v -1 h 8 v -1 h 3 v -1 h 3 v -1 h 3 v -1 h 4 v -1 h 2 v -1 h 2 v -1 h 2 v -1 h 2 v -1 h 2 v -1 h 1 v -1 h 2 v -1 h 2 v -1 h 1 v -1 h 1 v -1 h 2 v -1 h 1 v -1 h 1 v -1 h 1 v -1 h 1 v -1 h 2 v -1 h 1 v -1 h 1 v -1 h 1 v -1 h 1 v -2 h 1 v -1 h 1 v -1 h 1 v -1 h 1 v -2 h 1 v -1 h 1 v -1 h 1 v -2 h 1 v -1 h 1 v -2 h 1 v -2 h 1 v -2 h 1 v -2 h 1 v -2 h 1 v -2 h 1 v -3 h 1 v -3 h 1 v -4 h 1 v -3 h 1 v -6 h 1 v -7 h 1 v -9 h -1 v -8 h -1 v -6 h -1 v -3 h -1 v -3 h -1 v -3 h -1 v -4 h -1 v -2 h -1 v -2 h -1 v -2 h -1 v -1 h -1 v -2 h -1 v -2 h -1 v -2 h -1 v -1 h -1 v -2 h -1 v -1 h -1 v -1 h -1 v -1 h -1 v -2 h -1 v -1 h -1 v -1 h -1 v -1 h -1 v -2 h -2 v -1 h -1 v -1 h -1 v -1 h -1 v -1 h -1 v -1 h -2 v -1 h -1 v -1 h -1 v -1 h -1 v -1 h -2 v -1 h -1 v -1 h -2 v -1 h -2 v -1 h -2 v -1 h -2 v -1 h -2 v -1 h -1 v -1 h -4 v -1 h -3 v -1 h -3 v -1 h -3 v -1 h -5 v -1 h -8 v -1"
           style="fill:url(#linearGradient4);fill-opacity:1;fill-rule:nonzero;stroke:none"
           transform="matrix(0.13333333,0,0,-0.13333333,0,239.38667)"
           clip-path="url(#clipPath4)"
           id="path5" />
      </g>
      <g
         id="g10">
        <g
           clip-path="url(#clipPath8)"
           id="g9">
          <path
             d="m 1297,1348 v 1 h -16 v 1 h -8 v 1 h -8 v 1 h -5 v 1 h -5 v 1 h -4 v 1 h -5 v 1 h -4 v 1 h -3 v 1 h -3 v 1 h -3 v 1 h -4 v 1 h -3 v 1 h -2 v 1 h -3 v 1 h -2 v 1 h -3 v 1 h -2 v 1 h -2 v 1 h -3 v 1 h -2 v 1 h -2 v 1 h -2 v 1 h -2 v 1 h -2 v 1 h -2 v 1 h -2 v 1 h -2 v 1 h -1 v 1 h -2 v 1 h -2 v 1 h -1 v 1 h -2 v 1 h -1 v 1 h -2 v 1 h -2 v 1 h -1 v 1 h -2 v 1 h -1 v 1 h -2 v 1 h -1 v 1 h -2 v 1 h -1 v 1 h -1 v 1 h -2 v 1 h -1 v 1 h -1 v 1 h -2 v 1 h -1 v 1 h -1 v 1 h -1 v 1 h -2 v 1 h -1 v 1 h -1 v 1 h -2 v 1 h -1 v 1 h -1 v 1 h -2 v 1 h -1 v 1 h -2 v 1 h -1 v 1 h -1 v 1 h -2 v 1 h -1 v 1 h -1 v 1 h -2 v 1 h -1 v 1 h -2 v 1 h -1 v 1 h -2 v 1 h -1 v 1 h -2 v 1 h -1 v 1 h -2 v 1 h -2 v 1 h -1 v 1 h -2 v 1 h -1 v 1 h -2 v 1 h -2 v 1 h -1 v 1 h -2 v 1 h -1 v 1 h -2 v 1 h -2 v 1 h -1 v 1 h -2 v 1 h -1 v 1 h -2 v 1 h -2 v 1 h -2 v 1 h -2 v 1 h -2 v 1 h -2 v 1 h -2 v 1 h -2 v 1 h -1 v 1 h -2 v 1 h -2 v 1 h -2 v 1 h -2 v 1 h -2 v 1 h -2 v 1 h -2 v 1 h -2 v 1 h -2 v 1 h -3 v 1 h -2 v 1 h -2 v 1 h -3 v 1 h -2 v 1 h -2 v 1 h -3 v 1 h -2 v 1 h -3 v 1 h -2 v 1 h -2 v 1 h -3 v 1 h -2 v 1 h -4 v 1 h -3 v 1 h -3 v 1 h -3 v 1 h -3 v 1 h -3 v 1 h -3 v 1 h -3 v 1 h -3 v 1 h -3 v 1 h -4 v 1 h -4 v 1 h -5 v 1 h -4 v 1 h -4 v 1 h -4 v 1 h -5 v 1 h -4 v 1 h -6 v 1 h -7 v 1 h -8 v 1 h -7 v 1 h -7 v 1 h -14 v 1 H 277 v 1 h -9 v 1 h -4 v 1 h -4 v 1 h -3 v 1 h -3 v 1 h -2 v 1 h -2 v 1 h -3 v 1 h -2 v 1 h -1 v 1 h -2 v 1 h -2 v 1 h -1 v 1 h -2 v 1 h -1 v 1 h -1 v 1 h -2 v 1 h -1 v 1 h -1 v 1 h -1 v 1 h -1 v 1 h -1 v 1 h -2 v 2 h -1 v 1 h -1 v 1 h -1 v 1 h -1 v 1 h -1 v 1 h -1 v 2 h -1 v 1 h -1 v 2 h -1 v 1 h -1 v 2 h -1 v 1 h -1 v 2 h -1 v 2 h -1 v 2 h -1 v 2 h -1 v 2 h -1 v 3 h -1 v 3 h -1 v 3 h -1 v 4 h -1 v 5 h -1 v 11 h -1 v 5 h 1 v 10 h 1 v 6 h 1 v 3 h 1 v 4 h 1 v 3 h 1 v 2 h 1 v 2 h 1 v 2 h 1 v 2 h 1 v 2 h 1 v 2 h 1 v 2 h 1 v 1 h 1 v 2 h 1 v 1 h 1 v 1 h 1 v 2 h 1 v 1 h 1 v 2 h 1 v 1 h 1 v 1 h 1 v 1 h 1 v 1 h 1 v 1 h 1 v 1 h 1 v 1 h 1 v 1 h 1 v 1 h 2 v 1 h 1 v 1 h 2 v 1 h 1 v 1 h 1 v 1 h 2 v 1 h 1 v 1 h 2 v 1 h 2 v 1 h 2 v 1 h 2 v 1 h 2 v 1 h 2 v 1 h 3 v 1 h 3 v 1 h 4 v 1 h 4 v 1 h 7 v 1 h 621 v 1 h 20 v 1 h 9 v 1 h 8 v 1 h 9 v 1 h 9 v 1 h 6 v 1 h 5 v 1 h 6 v 1 h 5 v 1 h 5 v 1 h 5 v 1 h 5 v 1 h 5 v 1 h 3 v 1 h 4 v 1 h 4 v 1 h 3 v 1 h 4 v 1 h 3 v 1 h 4 v 1 h 3 v 1 h 4 v 1 h 4 v 1 h 2 v 1 h 3 v 1 h 3 v 1 h 2 v 1 h 3 v 1 h 3 v 1 h 2 v 1 h 3 v 1 h 3 v 1 h 2 v 1 h 3 v 1 h 3 v 1 h 3 v 1 h 2 v 1 h 2 v 1 h 2 v 1 h 2 v 1 h 2 v 1 h 2 v 1 h 3 v 1 h 2 v 1 h 2 v 1 h 2 v 1 h 2 v 1 h 2 v 1 h 2 v 1 h 2 v 1 h 2 v 1 h 3 v 1 h 2 v 1 h 1 v 1 h 2 v 1 h 2 v 1 h 1 v 1 h 2 v 1 h 2 v 1 h 2 v 1 h 1 v 1 h 2 v 1 h 2 v 1 h 1 v 1 h 2 v 1 h 2 v 1 h 1 v 1 h 2 v 1 h 2 v 1 h 1 v 1 h 2 v 1 h 2 v 1 h 1 v 1 h 2 v 1 h 1 v 1 h 2 v 1 h 1 v 1 h 2 v 1 h 1 v 1 h 1 v 1 h 2 v 1 h 1 v 1 h 2 v 1 h 1 v 1 h 2 v 1 h 1 v 1 h 1 v 1 h 2 v 1 h 1 v 1 h 2 v 1 h 1 v 1 h 1 v 1 h 1 v 1 h 2 v 1 h 1 v 1 h 1 v 1 h 1 v 1 h 2 v 1 h 1 v 1 h 1 v 1 h 2 v 1 h 1 v 1 h 2 v 1 h 1 v 1 h 2 v 1 h 1 v 1 h 2 v 1 h 1 v 1 h 2 v 1 h 2 v 1 h 1 v 1 h 2 v 1 h 1 v 1 h 2 v 1 h 2 v 1 h 2 v 1 h 2 v 1 h 1 v 1 h 2 v 1 h 2 v 1 h 2 v 1 h 2 v 1 h 2 v 1 h 3 v 1 h 2 v 1 h 3 v 1 h 2 v 1 h 2 v 1 h 3 v 1 h 2 v 1 h 3 v 1 h 3 v 1 h 4 v 1 h 3 v 1 h 3 v 1 h 3 v 1 h 5 v 1 h 4 v 1 h 5 v 1 h 5 v 1 h 7 v 1 h 8 v 1 h 48 v -1 h 8 v -1 h 7 v -1 h 5 v -1 h 5 v -1 h 4 v -1 h 5 v -1 h 3 v -1 h 3 v -1 h 3 v -1 h 4 v -1 h 3 v -1 h 3 v -1 h 2 v -1 h 3 v -1 h 2 v -1 h 2 v -1 h 3 v -1 h 2 v -1 h 3 v -1 h 2 v -1 h 2 v -1 h 2 v -1 h 2 v -1 h 2 v -1 h 1 v -1 h 2 v -1 h 2 v -1 h 2 v -1 h 2 v -1 h 1 v -1 h 2 v -1 h 1 v -1 h 2 v -1 h 2 v -1 h 1 v -1 h 2 v -1 h 1 v -1 h 2 v -1 h 1 v -1 h 2 v -1 h 1 v -1 h 1 v -1 h 2 v -1 h 1 v -1 h 2 v -1 h 1 v -1 h 1 v -1 h 1 v -1 h 2 v -1 h 1 v -1 h 1 v -1 h 1 v -1 h 2 v -1 h 1 v -1 h 1 v -1 h 2 v -1 h 1 v -1 h 2 v -1 h 1 v -1 h 1 v -1 h 2 v -1 h 1 v -1 h 2 v -1 h 1 v -1 h 1 v -1 h 2 v -1 h 1 v -1 h 2 v -1 h 1 v -1 h 2 v -1 h 1 v -1 h 2 v -1 h 2 v -1 h 1 v -1 h 2 v -1 h 1 v -1 h 2 v -1 h 2 v -1 h 1 v -1 h 2 v -1 h 1 v -1 h 2 v -1 h 2 v -1 h 1 v -1 h 2 v -1 h 1 v -1 h 2 v -1 h 2 v -1 h 2 v -1 h 2 v -1 h 2 v -1 h 2 v -1 h 1 v -1 h 2 v -1 h 2 v -1 h 2 v -1 h 2 v -1 h 2 v -1 h 2 v -1 h 2 v -1 h 2 v -1 h 2 v -1 h 2 v -1 h 2 v -1 h 2 v -1 h 3 v -1 h 2 v -1 h 2 v -1 h 3 v -1 h 2 v -1 h 2 v -1 h 3 v -1 h 2 v -1 h 3 v -1 h 2 v -1 h 2 v -1 h 3 v -1 h 3 v -1 h 3 v -1 h 3 v -1 h 3 v -1 h 3 v -1 h 3 v -1 h 3 v -1 h 3 v -1 h 3 v -1 h 3 v -1 h 3 v -1 h 5 v -1 h 4 v -1 h 4 v -1 h 5 v -1 h 4 v -1 h 4 v -1 h 4 v -1 h 5 v -1 h 7 v -1 h 7 v -1 h 7 v -1 h 8 v -1 h 8 v -1 h 16 v -1 h 36 v -1 h 7 v -1 h 4 v -1 h 4 v -1 h 3 v -1 h 4 v -1 h 2 v -1 h 2 v -1 h 2 v -1 h 2 v -1 h 2 v -1 h 2 v -1 h 2 v -1 h 2 v -1 h 1 v -1 h 1 v -1 h 2 v -1 h 1 v -1 h 2 v -1 h 1 v -1 h 1 v -1 h 1 v -1 h 1 v -1 h 1 v -1 h 1 v -1 h 1 v -1 h 1 v -1 h 1 v -1 h 1 v -1 h 1 v -1 h 1 v -1 h 1 v -1 h 1 v -2 h 1 v -1 h 1 v -2 h 1 v -1 h 1 v -2 h 1 v -1 h 1 v -2 h 1 v -2 h 1 v -2 h 1 v -2 h 1 v -3 h 1 v -2 h 1 v -3 h 1 v -4 h 1 v -4 h 1 v -6 h 1 v -15 h -1 v -8 h -1 v -4 h -1 v -4 h -1 v -4 h -1 v -3 h -1 v -2 h -1 v -2 h -1 v -2 h -1 v -2 h -1 v -2 h -1 v -2 h -1 v -2 h -1 v -1 h -1 v -1 h -1 v -2 h -1 v -1 h -1 v -1 h -1 v -2 h -1 v -1 h -1 v -1 h -1 v -1 h -1 v -1 h -1 v -1 h -1 v -1 h -1 v -1 h -1 v -1 h -1 v -1 h -1 v -1 h -1 v -1 h -2 v -1 h -1 v -1 h -1 v -1 h -1 v -1 h -2 v -1 h -2 v -1 h -2 v -1 h -1 v -1 h -2 v -1 h -2 v -1 h -2 v -1 h -2 v -1 h -3 v -1 h -3 v -1 h -4 v -1 h -3 v -1 h -5 v -1 h -7 v -1 h -43 v -1 h -14 v -1 h -7 v -1 h -7 v -1 h -8 v -1 h -7 v -1 h -6 v -1 h -4 v -1 h -5 v -1 h -4 v -1 h -4 v -1 h -4 v -1 h -5 v -1 h -4 v -1 h -4 v -1 h -3 v -1 h -3 v -1 h -3 v -1 h -3 v -1 h -3 v -1 h -3 v -1 h -3 v -1 h -3 v -1 h -3 v -1 h -4 v -1 h -2 v -1 h -3 v -1 h -2 v -1 h -2 v -1 h -3 v -1 h -2 v -1 h -3 v -1 h -2 v -1 h -2 v -1 h -3 v -1 h -2 v -1 h -2 v -1 h -3 v -1 h -2 v -1 h -2 v -1 h -2 v -1 h -2 v -1 h -2 v -1 h -2 v -1 h -2 v -1 h -2 v -1 h -2 v -1 h -1 v -1 h -2 v -1 h -2 v -1 h -2 v -1 h -2 v -1 h -2 v -1 h -2 v -1 h -2 v -1 h -2 v -1 h -1 v -1 h -2 v -1 h -2 v -1 h -1 v -1 h -2 v -1 h -1 v -1 h -2 v -1 h -2 v -1 h -1 v -1 h -2 v -1 h -1 v -1 h -2 v -1 h -1 v -1 h -2 v -1 h -2 v -1 h -1 v -1 h -2 v -1 h -1 v -1 h -2 v -1 h -1 v -1 h -2 v -1 h -1 v -1 h -2 v -1 h -1 v -1 h -1 v -1 h -2 v -1 h -1 v -1 h -2 v -1 h -1 v -1 h -1 v -1 h -2 v -1 h -1 v -1 h -1 v -1 h -2 v -1 h -1 v -1 h -1 v -1 h -2 v -1 h -1 v -1 h -1 v -1 h -1 v -1 h -2 v -1 h -1 v -1 h -1 v -1 h -2 v -1 h -1 v -1 h -1 v -1 h -2 v -1 h -1 v -1 h -2 v -1 h -1 v -1 h -2 v -1 h -1 v -1 h -2 v -1 h -2 v -1 h -1 v -1 h -2 v -1 h -1 v -1 h -2 v -1 h -2 v -1 h -1 v -1 h -2 v -1 h -2 v -1 h -2 v -1 h -2 v -1 h -2 v -1 h -2 v -1 h -2 v -1 h -2 v -1 h -3 v -1 h -2 v -1 h -3 v -1 h -2 v -1 h -2 v -1 h -3 v -1 h -2 v -1 h -4 v -1 h -3 v -1 h -3 v -1 h -3 v -1 h -3 v -1 h -4 v -1 h -5 v -1 h -4 v -1 h -5 v -1 h -5 v -1 h -8 v -1 h -8 v -1 h -16 v -1"
             style="fill:url(#linearGradient7);fill-opacity:1;fill-rule:nonzero;stroke:none"
             transform="matrix(0.13333333,0,0,-0.13333333,0,239.38667)"
             clip-path="url(#clipPath7)"
             id="path9" />
        </g>
      </g>
      <g
         id="g13">
        <path
           d="m 1711,143 v 1 h -8 v 1 h -5 v 1 h -3 v 1 h -3 v 1 h -4 v 1 h -3 v 1 h -2 v 1 h -2 v 1 h -2 v 1 h -1 v 1 h -2 v 1 h -2 v 1 h -2 v 1 h -1 v 1 h -2 v 1 h -1 v 1 h -1 v 1 h -1 v 1 h -2 v 1 h -1 v 1 h -1 v 1 h -1 v 1 h -1 v 1 h -1 v 1 h -1 v 1 h -1 v 1 h -1 v 1 h -1 v 2 h -1 v 1 h -1 v 1 h -1 v 1 h -1 v 2 h -1 v 1 h -1 v 2 h -1 v 2 h -1 v 1 h -1 v 2 h -1 v 2 h -1 v 2 h -1 v 2 h -1 v 3 h -1 v 3 h -1 v 3 h -1 v 4 h -1 v 5 h -1 v 7 h -1 v 12 h 1 v 8 h 1 v 5 h 1 v 3 h 1 v 3 h 1 v 3 h 1 v 4 h 1 v 1 h 1 v 2 h 1 v 2 h 1 v 2 h 1 v 2 h 1 v 2 h 1 v 1 h 1 v 2 h 1 v 1 h 1 v 1 h 1 v 2 h 1 v 1 h 1 v 1 h 1 v 1 h 1 v 1 h 1 v 2 h 1 v 1 h 1 v 1 h 2 v 1 h 1 v 1 h 1 v 1 h 1 v 1 h 1 v 1 h 2 v 1 h 1 v 1 h 1 v 1 h 1 v 1 h 2 v 1 h 2 v 1 h 2 v 1 h 2 v 1 h 2 v 1 h 1 v 1 h 2 v 1 h 3 v 1 h 3 v 1 h 3 v 1 h 4 v 1 h 3 v 1 h 8 v 1 h 16 v -1 h 8 v -1 h 3 v -1 h 4 v -1 h 3 v -1 h 3 v -1 h 3 v -1 h 2 v -1 h 2 v -1 h 2 v -1 h 1 v -1 h 2 v -1 h 2 v -1 h 2 v -1 h 1 v -1 h 1 v -1 h 2 v -1 h 1 v -1 h 1 v -1 h 1 v -1 h 1 v -1 h 2 v -1 h 1 v -1 h 1 v -1 h 1 v -1 h 1 v -2 h 1 v -1 h 1 v -1 h 1 v -1 h 1 v -1 h 1 v -2 h 1 v -1 h 1 v -1 h 1 v -2 h 1 v -2 h 1 v -2 h 1 v -2 h 1 v -1 h 1 v -2 h 1 v -2 h 1 v -3 h 1 v -3 h 1 v -3 h 1 v -4 h 1 v -4 h 1 v -7 h 1 v -15 h -1 v -8 h -1 v -4 h -1 v -3 h -1 v -3 h -1 v -4 h -1 v -3 h -1 v -1 h -1 v -2 h -1 v -2 h -1 v -2 h -1 v -2 h -1 v -2 h -1 v -1 h -1 v -2 h -1 v -1 h -1 v -1 h -1 v -1 h -1 v -2 h -1 v -1 h -1 v -1 h -1 v -1 h -1 v -1 h -1 v -2 h -2 v -1 h -1 v -1 h -1 v -1 h -1 v -1 h -2 v -1 h -1 v -1 h -1 v -1 h -1 v -1 h -1 v -1 h -2 v -1 h -2 v -1 h -2 v -1 h -1 v -1 h -2 v -1 h -2 v -1 h -2 v -1 h -2 v -1 h -3 v -1 h -3 v -1 h -4 v -1 h -3 v -1 h -5 v -1 h -8 v -1"
           style="fill:url(#linearGradient12);fill-opacity:1;fill-rule:nonzero;stroke:none"
           transform="matrix(0.13333333,0,0,-0.13333333,0,239.38667)"
           clip-path="url(#clipPath12)"
           id="path13" />
      </g>
      <g
         id="g16">
        <path
           d="m 985,674 v 1 h -12 v 1 h -6 v 1 h -6 v 1 h -5 v 1 h -5 v 1 h -5 v 1 h -4 v 1 h -3 v 1 h -3 v 1 h -3 v 1 h -4 v 1 h -3 v 1 h -3 v 1 h -3 v 1 h -3 v 1 h -2 v 1 h -2 v 1 h -3 v 1 h -2 v 1 h -2 v 1 h -2 v 1 h -3 v 1 h -2 v 1 h -2 v 1 h -2 v 1 h -1 v 1 h -2 v 1 h -2 v 1 h -2 v 1 h -2 v 1 h -2 v 1 h -2 v 1 h -1 v 1 h -2 v 1 h -2 v 1 h -3 v 1 h -2 v 1 h -2 v 1 h -2 v 1 h -2 v 1 h -2 v 1 h -2 v 1 h -2 v 1 h -2 v 1 h -2 v 1 h -3 v 1 h -2 v 1 h -2 v 1 h -2 v 1 h -2 v 1 h -2 v 1 h -2 v 1 h -2 v 1 h -2 v 1 h -3 v 1 h -2 v 1 h -2 v 1 h -3 v 1 h -2 v 1 h -3 v 1 h -2 v 1 h -3 v 1 h -2 v 1 h -3 v 1 h -2 v 1 h -3 v 1 h -2 v 1 h -2 v 1 h -3 v 1 h -2 v 1 h -3 v 1 h -2 v 1 h -3 v 1 h -2 v 1 h -3 v 1 h -2 v 1 h -3 v 1 h -2 v 1 h -3 v 1 h -3 v 1 h -3 v 1 h -3 v 1 h -3 v 1 h -3 v 1 h -3 v 1 h -3 v 1 h -3 v 1 h -3 v 1 h -3 v 1 h -3 v 1 h -3 v 1 h -3 v 1 h -3 v 1 h -3 v 1 h -3 v 1 h -3 v 1 h -3 v 1 h -3 v 1 h -3 v 1 h -4 v 1 h -4 v 1 h -3 v 1 h -4 v 1 h -4 v 1 h -4 v 1 h -4 v 1 h -4 v 1 h -3 v 1 h -4 v 1 h -4 v 1 h -4 v 1 h -4 v 1 h -4 v 1 h -3 v 1 h -4 v 1 h -5 v 1 h -5 v 1 h -5 v 1 h -5 v 1 h -5 v 1 h -5 v 1 h -5 v 1 h -5 v 1 h -6 v 1 h -5 v 1 h -5 v 1 h -5 v 1 h -6 v 1 h -7 v 1 h -7 v 1 h -8 v 1 h -7 v 1 h -7 v 1 h -7 v 1 h -8 v 1 h -7 v 1 h -10 v 1 h -13 v 1 h -12 v 1 h -13 v 1 h -12 v 1 h -19 v 1 h -29 v 1 H 70 v 1 h -7 v 1 h -4 v 1 h -3 v 1 h -3 v 1 h -3 v 1 h -3 v 1 h -2 v 1 h -2 v 1 h -1 v 1 h -2 v 1 h -2 v 1 h -2 v 1 h -2 v 1 h -1 v 1 h -1 v 1 h -1 v 1 h -2 v 1 h -1 v 1 h -1 v 1 h -1 v 1 h -1 v 1 h -2 v 1 h -1 v 2 h -1 v 1 h -1 v 1 h -1 v 1 h -1 v 1 h -1 v 2 h -1 v 1 h -1 v 1 h -1 v 1 h -1 v 2 h -1 v 2 h -1 v 1 h -1 v 2 H 9 v 2 H 8 v 2 H 7 v 2 H 6 v 2 H 5 v 3 H 4 v 3 H 3 v 4 H 2 v 3 H 1 v 6 H 0 v 24 h 1 v 5 h 1 v 4 h 1 v 3 h 1 v 3 h 1 v 3 h 1 v 2 h 1 v 2 h 1 v 2 h 1 v 2 h 1 v 2 h 1 v 2 h 1 v 1 h 1 v 2 h 1 v 1 h 1 v 1 h 1 v 2 h 1 v 1 h 1 v 1 h 1 v 1 h 1 v 2 h 1 v 1 h 1 v 1 h 1 v 1 h 1 v 1 h 1 v 1 h 2 v 1 h 1 v 1 h 1 v 1 h 1 v 1 h 2 v 1 h 1 v 1 h 1 v 1 h 2 v 1 h 1 v 1 h 2 v 1 h 2 v 1 h 2 v 1 h 2 v 1 h 2 v 1 h 2 v 1 h 3 v 1 h 3 v 1 h 3 v 1 h 4 v 1 h 6 v 1 h 346 v 1 h 28 v 1 h 23 v 1 h 13 v 1 h 12 v 1 h 13 v 1 h 12 v 1 h 12 v 1 h 7 v 1 h 8 v 1 h 7 v 1 h 7 v 1 h 8 v 1 h 7 v 1 h 7 v 1 h 8 v 1 h 6 v 1 h 5 v 1 h 5 v 1 h 5 v 1 h 5 v 1 h 5 v 1 h 5 v 1 h 5 v 1 h 5 v 1 h 6 v 1 h 5 v 1 h 5 v 1 h 5 v 1 h 4 v 1 h 3 v 1 h 4 v 1 h 4 v 1 h 4 v 1 h 4 v 1 h 4 v 1 h 3 v 1 h 4 v 1 h 4 v 1 h 4 v 1 h 4 v 1 h 4 v 1 h 3 v 1 h 4 v 1 h 4 v 1 h 3 v 1 h 3 v 1 h 3 v 1 h 3 v 1 h 3 v 1 h 3 v 1 h 3 v 1 h 3 v 1 h 3 v 1 h 3 v 1 h 3 v 1 h 3 v 1 h 3 v 1 h 4 v 1 h 3 v 1 h 3 v 1 h 3 v 1 h 3 v 1 h 3 v 1 h 3 v 1 h 2 v 1 h 3 v 1 h 2 v 1 h 3 v 1 h 2 v 1 h 3 v 1 h 2 v 1 h 3 v 1 h 2 v 1 h 2 v 1 h 3 v 1 h 2 v 1 h 3 v 1 h 2 v 1 h 3 v 1 h 2 v 1 h 3 v 1 h 2 v 1 h 3 v 1 h 2 v 1 h 2 v 1 h 3 v 1 h 2 v 1 h 3 v 1 h 2 v 1 h 2 v 1 h 2 v 1 h 2 v 1 h 3 v 1 h 2 v 1 h 2 v 1 h 2 v 1 h 2 v 1 h 2 v 1 h 2 v 1 h 2 v 1 h 2 v 1 h 2 v 1 h 2 v 1 h 3 v 1 h 2 v 1 h 2 v 1 h 2 v 1 h 2 v 1 h 2 v 1 h 2 v 1 h 2 v 1 h 2 v 1 h 2 v 1 h 2 v 1 h 1 v 1 h 2 v 1 h 2 v 1 h 2 v 1 h 2 v 1 h 2 v 1 h 2 v 1 h 2 v 1 h 2 v 1 h 3 v 1 h 2 v 1 h 2 v 1 h 2 v 1 h 3 v 1 h 2 v 1 h 3 v 1 h 3 v 1 h 4 v 1 h 3 v 1 h 3 v 1 h 3 v 1 h 3 v 1 h 3 v 1 h 6 v 1 h 5 v 1 h 5 v 1 h 5 v 1 h 6 v 1 h 11 v 1 h 35 v -1 h 12 v -1 h 5 v -1 h 5 v -1 h 6 v -1 h 5 v -1 h 5 v -1 h 3 v -1 h 3 v -1 h 4 v -1 h 3 v -1 h 3 v -1 h 3 v -1 h 3 v -1 h 3 v -1 h 3 v -1 h 2 v -1 h 2 v -1 h 2 v -1 h 3 v -1 h 2 v -1 h 2 v -1 h 3 v -1 h 2 v -1 h 2 v -1 h 1 v -1 h 2 v -1 h 2 v -1 h 2 v -1 h 2 v -1 h 2 v -1 h 2 v -1 h 1 v -1 h 2 v -1 h 2 v -1 h 2 v -1 h 2 v -1 h 3 v -1 h 2 v -1 h 2 v -1 h 2 v -1 h 2 v -1 h 2 v -1 h 2 v -1 h 2 v -1 h 2 v -1 h 2 v -1 h 2 v -1 h 3 v -1 h 2 v -1 h 2 v -1 h 2 v -1 h 2 v -1 h 2 v -1 h 2 v -1 h 3 v -1 h 2 v -1 h 2 v -1 h 3 v -1 h 2 v -1 h 3 v -1 h 2 v -1 h 3 v -1 h 2 v -1 h 3 v -1 h 2 v -1 h 3 v -1 h 2 v -1 h 2 v -1 h 3 v -1 h 2 v -1 h 3 v -1 h 2 v -1 h 3 v -1 h 2 v -1 h 3 v -1 h 2 v -1 h 2 v -1 h 3 v -1 h 3 v -1 h 3 v -1 h 3 v -1 h 3 v -1 h 3 v -1 h 3 v -1 h 3 v -1 h 3 v -1 h 3 v -1 h 3 v -1 h 3 v -1 h 3 v -1 h 3 v -1 h 3 v -1 h 3 v -1 h 3 v -1 h 3 v -1 h 3 v -1 h 3 v -1 h 3 v -1 h 3 v -1 h 4 v -1 h 4 v -1 h 4 v -1 h 4 v -1 h 3 v -1 h 4 v -1 h 4 v -1 h 4 v -1 h 4 v -1 h 4 v -1 h 3 v -1 h 4 v -1 h 4 v -1 h 4 v -1 h 4 v -1 h 4 v -1 h 5 v -1 h 5 v -1 h 5 v -1 h 5 v -1 h 5 v -1 h 5 v -1 h 5 v -1 h 5 v -1 h 5 v -1 h 5 v -1 h 5 v -1 h 5 v -1 h 7 v -1 h 7 v -1 h 7 v -1 h 8 v -1 h 7 v -1 h 7 v -1 h 8 v -1 h 7 v -1 h 7 v -1 h 12 v -1 h 12 v -1 h 13 v -1 h 12 v -1 h 13 v -1 h 23 v -1 h 29 v -1 h 142 v -1 h 6 v -1 h 3 v -1 h 3 v -1 h 3 v -1 h 4 v -1 h 2 v -1 h 2 v -1 h 1 v -1 h 2 v -1 h 2 v -1 h 2 v -1 h 2 v -1 h 1 v -1 h 2 v -1 h 1 v -1 h 1 v -1 h 1 v -1 h 1 v -1 h 2 v -1 h 1 v -1 h 1 v -1 h 1 v -1 h 1 v -1 h 1 v -1 h 1 v -1 h 1 v -1 h 1 v -2 h 1 v -1 h 1 v -1 h 1 v -1 h 1 v -1 h 1 v -2 h 1 v -2 h 1 v -1 h 1 v -2 h 1 v -2 h 1 v -2 h 1 v -2 h 1 v -2 h 1 v -3 h 1 v -3 h 1 v -3 h 1 v -3 h 1 v -4 h 1 v -8 h 1 v -15 h -1 v -7 h -1 v -4 h -1 v -4 h -1 v -3 h -1 v -3 h -1 v -3 h -1 v -2 h -1 v -2 h -1 v -2 h -1 v -1 h -1 v -2 h -1 v -2 h -1 v -2 h -1 v -1 h -1 v -1 h -1 v -2 h -1 v -1 h -1 v -1 h -1 v -1 h -1 v -2 h -1 v -1 h -1 v -1 h -1 v -1 h -1 v -1 h -1 v -1 h -1 v -1 h -2 v -1 h -1 v -1 h -1 v -1 h -1 v -1 h -1 v -1 h -2 v -1 h -1 v -1 h -2 v -1 h -1 v -1 h -2 v -1 h -2 v -1 h -2 v -1 h -2 v -1 h -2 v -1 h -2 v -1 h -4 v -1 h -3 v -1 h -3 v -1 h -3 v -1 h -7 v -1 h -148 v -1 h -29 v -1 h -18 v -1 h -13 v -1 h -12 v -1 h -13 v -1 h -12 v -1 h -11 v -1 h -7 v -1 h -7 v -1 h -8 v -1 h -7 v -1 h -7 v -1 h -8 v -1 h -7 v -1 h -7 v -1 h -6 v -1 h -5 v -1 h -5 v -1 h -5 v -1 h -5 v -1 h -5 v -1 h -5 v -1 h -5 v -1 h -6 v -1 h -5 v -1 h -5 v -1 h -5 v -1 h -5 v -1 h -3 v -1 h -4 v -1 h -4 v -1 h -4 v -1 h -4 v -1 h -3 v -1 h -4 v -1 h -4 v -1 h -4 v -1 h -4 v -1 h -4 v -1 h -3 v -1 h -4 v -1 h -4 v -1 h -4 v -1 h -4 v -1 h -3 v -1 h -3 v -1 h -3 v -1 h -3 v -1 h -3 v -1 h -3 v -1 h -3 v -1 h -3 v -1 h -3 v -1 h -3 v -1 h -3 v -1 h -3 v -1 h -3 v -1 h -3 v -1 h -3 v -1 h -3 v -1 h -3 v -1 h -3 v -1 h -3 v -1 h -3 v -1 h -3 v -1 h -2 v -1 h -3 v -1 h -2 v -1 h -3 v -1 h -2 v -1 h -2 v -1 h -3 v -1 h -2 v -1 h -3 v -1 h -2 v -1 h -3 v -1 h -2 v -1 h -3 v -1 h -2 v -1 h -3 v -1 h -2 v -1 h -2 v -1 h -3 v -1 h -2 v -1 h -3 v -1 h -2 v -1 h -3 v -1 h -2 v -1 h -2 v -1 h -3 v -1 h -2 v -1 h -2 v -1 h -2 v -1 h -2 v -1 h -2 v -1 h -2 v -1 h -2 v -1 h -2 v -1 h -2 v -1 h -2 v -1 h -3 v -1 h -2 v -1 h -2 v -1 h -2 v -1 h -2 v -1 h -2 v -1 h -2 v -1 h -2 v -1 h -2 v -1 h -2 v -1 h -2 v -1 h -2 v -1 h -2 v -1 h -2 v -1 h -2 v -1 h -1 v -1 h -2 v -1 h -2 v -1 h -2 v -1 h -2 v -1 h -2 v -1 h -2 v -1 h -3 v -1 h -2 v -1 h -2 v -1 h -2 v -1 h -3 v -1 h -2 v -1 h -3 v -1 h -3 v -1 h -3 v -1 h -3 v -1 h -3 v -1 h -3 v -1 h -3 v -1 h -4 v -1 h -3 v -1 h -6 v -1 h -5 v -1 h -5 v -1 h -5 v -1 h -7 v -1 h -12 v -1"
           style="fill:url(#linearGradient15);fill-opacity:1;fill-rule:nonzero;stroke:none"
           transform="matrix(0.13333333,0,0,-0.13333333,0,239.38667)"
           clip-path="url(#clipPath15)"
           id="path16" />
      </g>
      <g
         id="g19">
        <path
           d="m 682,0 v 1 h -11 v 1 h -6 v 1 h -4 v 1 h -5 v 1 h -5 v 1 h -4 v 1 h -5 v 1 h -4 v 1 h -3 v 1 h -3 v 1 h -2 v 1 h -3 v 1 h -3 v 1 h -3 v 1 h -2 v 1 h -3 v 1 h -3 v 1 h -3 v 1 h -2 v 1 h -2 v 1 h -2 v 1 h -2 v 1 h -2 v 1 h -2 v 1 h -2 v 1 h -2 v 1 h -2 v 1 h -2 v 1 h -1 v 1 h -2 v 1 h -2 v 1 h -1 v 1 h -2 v 1 h -1 v 1 h -2 v 1 h -2 v 1 h -1 v 1 h -2 v 1 h -2 v 1 h -1 v 1 h -2 v 1 h -2 v 1 h -2 v 1 h -2 v 1 h -1 v 1 h -2 v 1 h -2 v 1 h -2 v 1 h -2 v 1 h -2 v 1 h -1 v 1 h -2 v 1 h -2 v 1 h -2 v 1 h -2 v 1 h -2 v 1 h -1 v 1 h -2 v 1 h -2 v 1 h -2 v 1 h -2 v 1 h -3 v 1 h -2 v 1 h -2 v 1 h -2 v 1 h -2 v 1 h -2 v 1 h -2 v 1 h -3 v 1 h -2 v 1 h -2 v 1 h -2 v 1 h -2 v 1 h -2 v 1 h -3 v 1 h -2 v 1 h -2 v 1 h -2 v 1 h -2 v 1 h -2 v 1 h -2 v 1 h -3 v 1 h -2 v 1 h -3 v 1 h -3 v 1 h -2 v 1 h -3 v 1 h -3 v 1 h -2 v 1 h -3 v 1 h -3 v 1 h -2 v 1 h -3 v 1 h -3 v 1 h -2 v 1 h -3 v 1 h -2 v 1 h -3 v 1 h -3 v 1 h -2 v 1 h -3 v 1 h -4 v 1 h -3 v 1 h -3 v 1 h -4 v 1 h -3 v 1 h -3 v 1 h -4 v 1 h -3 v 1 h -3 v 1 h -4 v 1 h -3 v 1 h -4 v 1 h -3 v 1 h -3 v 1 h -4 v 1 h -4 v 1 h -4 v 1 h -5 v 1 h -4 v 1 h -5 v 1 h -4 v 1 h -5 v 1 h -4 v 1 h -5 v 1 h -4 v 1 h -5 v 1 h -4 v 1 h -7 v 1 h -6 v 1 h -6 v 1 h -7 v 1 h -6 v 1 h -7 v 1 h -6 v 1 h -6 v 1 h -10 v 1 h -11 v 1 h -11 v 1 h -11 v 1 h -11 v 1 h -21 v 1 H 74 v 1 h -7 v 1 h -6 v 1 h -3 v 1 h -3 v 1 h -3 v 1 h -4 v 1 h -2 v 1 h -1 v 1 h -2 v 1 h -2 v 1 h -2 v 1 h -2 v 1 h -2 v 1 h -1 v 1 h -1 v 1 h -2 v 1 h -1 v 1 h -1 v 1 h -1 v 1 h -1 v 1 h -2 v 1 h -1 v 1 h -1 v 1 h -1 v 1 h -1 v 1 h -1 v 2 h -1 v 1 h -1 v 1 h -1 v 1 h -1 v 1 h -1 v 2 h -1 v 1 h -1 v 1 h -1 v 2 h -1 v 2 h -1 v 2 H 9 v 2 H 8 v 2 H 7 v 1 H 6 v 3 H 5 v 3 H 4 v 3 H 3 v 3 H 2 v 4 H 1 v 5 H 0 v 24 h 1 v 6 h 1 v 3 h 1 v 3 h 1 v 4 h 1 v 3 h 1 v 2 h 1 v 2 h 1 v 2 h 1 v 1 h 1 v 2 h 1 v 2 h 1 v 2 h 1 v 2 h 1 v 1 h 1 v 1 h 1 v 1 h 1 v 1 h 1 v 2 h 1 v 1 h 1 v 1 h 1 v 1 h 1 v 1 h 1 v 1 h 1 v 1 h 1 v 1 h 1 v 1 h 1 v 1 h 1 v 1 h 2 v 1 h 1 v 1 h 1 v 1 h 1 v 1 h 2 v 1 h 1 v 1 h 2 v 1 h 2 v 1 h 2 v 1 h 2 v 1 h 2 v 1 h 1 v 1 h 3 v 1 h 3 v 1 h 4 v 1 h 3 v 1 h 3 v 1 h 8 v 1 h 125 v 1 h 25 v 1 h 13 v 1 h 11 v 1 h 11 v 1 h 11 v 1 h 11 v 1 h 6 v 1 h 7 v 1 h 6 v 1 h 7 v 1 h 6 v 1 h 6 v 1 h 7 v 1 h 6 v 1 h 6 v 1 h 4 v 1 h 5 v 1 h 4 v 1 h 4 v 1 h 5 v 1 h 4 v 1 h 5 v 1 h 4 v 1 h 5 v 1 h 4 v 1 h 5 v 1 h 3 v 1 h 4 v 1 h 3 v 1 h 3 v 1 h 4 v 1 h 3 v 1 h 4 v 1 h 3 v 1 h 3 v 1 h 4 v 1 h 3 v 1 h 3 v 1 h 4 v 1 h 3 v 1 h 3 v 1 h 4 v 1 h 2 v 1 h 3 v 1 h 2 v 1 h 3 v 1 h 3 v 1 h 2 v 1 h 3 v 1 h 3 v 1 h 2 v 1 h 3 v 1 h 3 v 1 h 2 v 1 h 3 v 1 h 3 v 1 h 2 v 1 h 3 v 1 h 3 v 1 h 2 v 1 h 3 v 1 h 2 v 1 h 2 v 1 h 2 v 1 h 2 v 1 h 2 v 1 h 3 v 1 h 2 v 1 h 2 v 1 h 2 v 1 h 2 v 1 h 2 v 1 h 3 v 1 h 2 v 1 h 2 v 1 h 2 v 1 h 2 v 1 h 2 v 1 h 2 v 1 h 3 v 1 h 2 v 1 h 2 v 1 h 2 v 1 h 2 v 1 h 2 v 1 h 2 v 1 h 2 v 1 h 1 v 1 h 2 v 1 h 2 v 1 h 2 v 1 h 2 v 1 h 1 v 1 h 2 v 1 h 2 v 1 h 2 v 1 h 2 v 1 h 2 v 1 h 1 v 1 h 2 v 1 h 2 v 1 h 2 v 1 h 2 v 1 h 1 v 1 h 2 v 1 h 2 v 1 h 1 v 1 h 2 v 1 h 2 v 1 h 1 v 1 h 2 v 1 h 1 v 1 h 2 v 1 h 2 v 1 h 2 v 1 h 2 v 1 h 2 v 1 h 2 v 1 h 2 v 1 h 2 v 1 h 2 v 1 h 2 v 1 h 2 v 1 h 2 v 1 h 2 v 1 h 3 v 1 h 3 v 1 h 2 v 1 h 3 v 1 h 3 v 1 h 2 v 1 h 3 v 1 h 3 v 1 h 3 v 1 h 3 v 1 h 5 v 1 h 4 v 1 h 5 v 1 h 5 v 1 h 4 v 1 h 5 v 1 h 10 v 1 h 10 v 1 h 26 v -1 h 10 v -1 h 10 v -1 h 5 v -1 h 4 v -1 h 5 v -1 h 5 v -1 h 4 v -1 h 5 v -1 h 3 v -1 h 3 v -1 h 3 v -1 h 2 v -1 h 3 v -1 h 3 v -1 h 3 v -1 h 2 v -1 h 3 v -1 h 3 v -1 h 2 v -1 h 2 v -1 h 2 v -1 h 2 v -1 h 2 v -1 h 2 v -1 h 2 v -1 h 2 v -1 h 2 v -1 h 2 v -1 h 2 v -1 h 2 v -1 h 2 v -1 h 1 v -1 h 2 v -1 h 1 v -1 h 2 v -1 h 2 v -1 h 1 v -1 h 2 v -1 h 2 v -1 h 1 v -1 h 2 v -1 h 2 v -1 h 2 v -1 h 1 v -1 h 2 v -1 h 2 v -1 h 2 v -1 h 2 v -1 h 2 v -1 h 1 v -1 h 2 v -1 h 2 v -1 h 2 v -1 h 2 v -1 h 2 v -1 h 1 v -1 h 2 v -1 h 2 v -1 h 2 v -1 h 2 v -1 h 2 v -1 h 2 v -1 h 2 v -1 h 3 v -1 h 2 v -1 h 2 v -1 h 2 v -1 h 2 v -1 h 2 v -1 h 2 v -1 h 3 v -1 h 2 v -1 h 2 v -1 h 2 v -1 h 2 v -1 h 2 v -1 h 2 v -1 h 3 v -1 h 2 v -1 h 2 v -1 h 2 v -1 h 2 v -1 h 3 v -1 h 2 v -1 h 3 v -1 h 3 v -1 h 2 v -1 h 3 v -1 h 3 v -1 h 2 v -1 h 3 v -1 h 3 v -1 h 2 v -1 h 3 v -1 h 2 v -1 h 3 v -1 h 3 v -1 h 2 v -1 h 3 v -1 h 3 v -1 h 2 v -1 h 4 v -1 h 3 v -1 h 3 v -1 h 4 v -1 h 3 v -1 h 3 v -1 h 4 v -1 h 3 v -1 h 3 v -1 h 4 v -1 h 3 v -1 h 3 v -1 h 4 v -1 h 3 v -1 h 4 v -1 h 3 v -1 h 5 v -1 h 4 v -1 h 5 v -1 h 4 v -1 h 5 v -1 h 4 v -1 h 4 v -1 h 5 v -1 h 4 v -1 h 5 v -1 h 4 v -1 h 6 v -1 h 6 v -1 h 6 v -1 h 7 v -1 h 6 v -1 h 7 v -1 h 6 v -1 h 7 v -1 h 6 v -1 h 11 v -1 h 11 v -1 h 11 v -1 h 11 v -1 h 13 v -1 h 25 v -1 h 312 v -1 h 7 v -1 h 4 v -1 h 3 v -1 h 3 v -1 h 4 v -1 h 2 v -1 h 2 v -1 h 2 v -1 h 2 v -1 h 2 v -1 h 2 v -1 h 1 v -1 h 2 v -1 h 1 v -1 h 2 v -1 h 1 v -1 h 1 v -1 h 1 v -1 h 2 v -1 h 1 v -1 h 1 v -1 h 1 v -1 h 1 v -1 h 1 v -1 h 1 v -1 h 1 v -1 h 1 v -2 h 1 v -1 h 1 v -1 h 1 v -1 h 1 v -1 h 1 v -2 h 1 v -1 h 1 v -2 h 1 v -2 h 1 v -2 h 1 v -2 h 1 v -2 h 1 v -1 h 1 v -3 h 1 v -3 h 1 v -3 h 1 v -4 h 1 v -3 h 1 v -6 h 1 v -21 h -1 v -7 h -1 v -3 h -1 v -3 h -1 v -4 h -1 v -3 h -1 v -2 h -1 v -2 h -1 v -2 h -1 v -2 h -1 v -2 h -1 v -1 h -1 v -2 h -1 v -2 h -1 v -1 h -1 v -1 h -1 v -2 h -1 v -1 h -1 v -1 h -1 v -1 h -1 v -1 h -1 v -2 h -1 v -1 h -1 v -1 h -1 v -1 h -2 v -1 h -1 v -1 h -1 v -1 h -1 v -1 h -1 v -1 h -2 v -1 h -1 v -1 h -1 v -1 h -1 v -1 h -2 v -1 h -2 v -1 h -2 v -1 h -2 v -1 h -2 v -1 h -2 v -1 h -2 v -1 h -3 v -1 h -3 v -1 h -3 v -1 h -3 v -1 h -6 v -1 h -7 v -1 h -312 v -1 h -22 v -1 h -11 v -1 h -10 v -1 h -10 v -1 h -10 v -1 h -11 v -1 h -7 v -1 h -6 v -1 h -6 v -1 h -6 v -1 h -7 v -1 h -6 v -1 h -6 v -1 h -6 v -1 h -6 v -1 h -5 v -1 h -4 v -1 h -4 v -1 h -5 v -1 h -4 v -1 h -4 v -1 h -5 v -1 h -4 v -1 h -4 v -1 h -5 v -1 h -4 v -1 h -4 v -1 h -4 v -1 h -4 v -1 h -3 v -1 h -3 v -1 h -3 v -1 h -4 v -1 h -3 v -1 h -3 v -1 h -4 v -1 h -3 v -1 h -3 v -1 h -4 v -1 h -3 v -1 h -3 v -1 h -4 v -1 h -3 v -1 h -3 v -1 h -3 v -1 h -2 v -1 h -3 v -1 h -3 v -1 h -2 v -1 h -3 v -1 h -3 v -1 h -2 v -1 h -3 v -1 h -2 v -1 h -3 v -1 h -3 v -1 h -2 v -1 h -3 v -1 h -3 v -1 h -2 v -1 h -3 v -1 h -3 v -1 h -2 v -1 h -3 v -1 h -2 v -1 h -2 v -1 h -2 v -1 h -2 v -1 h -3 v -1 h -2 v -1 h -2 v -1 h -2 v -1 h -2 v -1 h -3 v -1 h -2 v -1 h -2 v -1 h -2 v -1 h -2 v -1 h -3 v -1 h -2 v -1 h -2 v -1 h -2 v -1 h -2 v -1 h -3 v -1 h -2 v -1 h -2 v -1 h -2 v -1 h -2 v -1 h -2 v -1 h -2 v -1 h -1 v -1 h -2 v -1 h -2 v -1 h -2 v -1 h -2 v -1 h -2 v -1 h -2 v -1 h -2 v -1 h -2 v -1 h -2 v -1 h -1 v -1 h -2 v -1 h -2 v -1 h -2 v -1 h -2 v -1 h -2 v -1 h -2 v -1 h -1 v -1 h -2 v -1 h -2 v -1 h -1 v -1 h -2 v -1 h -2 v -1 h -2 v -1 h -1 v -1 h -2 v -1 h -2 v -1 h -2 v -1 h -2 v -1 h -2 v -1 h -2 v -1 h -3 v -1 h -2 v -1 h -2 v -1 h -2 v -1 h -2 v -1 h -3 v -1 h -3 v -1 h -3 v -1 h -3 v -1 h -3 v -1 h -3 v -1 h -2 V 9 h -3 V 8 h -3 V 7 h -5 V 6 h -5 V 5 h -5 V 4 h -5 V 3 h -5 V 2 h -5 V 1 H 720 V 0"
           style="fill:url(#linearGradient18);fill-opacity:1;fill-rule:nonzero;stroke:none"
           transform="matrix(0.13333333,0,0,-0.13333333,0,239.38667)"
           clip-path="url(#clipPath18)"
           id="path19" />
      </g>
      <path
         id="path20"
         d="m 4999.45,1651.04 v -69.96 h 253.93 V 744.129 h 77.73 v 836.951 h 253.94 v 69.96 h -585.6"
         style="fill:#1a1818;fill-opacity:1;fill-rule:nonzero;stroke:none"
         transform="matrix(0.13333333,0,0,-0.13333333,0,239.38667)" />
      <path
         id="path21"
         d="m 6237.85,1581.08 v 69.96 H 5727.4 V 744.129 h 510.45 v 69.961 h -432.72 v 351.11 h 432.72 v 64.78 h -432.72 v 351.1 h 432.72"
         style="fill:#1a1818;fill-opacity:1;fill-rule:nonzero;stroke:none"
         transform="matrix(0.13333333,0,0,-0.13333333,0,239.38667)" />
      <path
         id="path22"
         d="m 7741.18,1651.14 v -422.4 H 7217.7 v 422.4 h -77.74 V 744.141 h 77.74 v 419.809 h 523.48 V 744.141 h 77.74 v 906.999 h -77.74"
         style="fill:#1a1818;fill-opacity:1;fill-rule:nonzero;stroke:none"
         transform="matrix(0.13333333,0,0,-0.13333333,0,239.38667)" />
      <path
         id="path23"
         d="m 2398.02,1506.22 h 238.06 V 744.191 h 186.5 v 762.029 h 238.06 v 144.94 h -662.62 v -144.94"
         style="fill:#1a1818;fill-opacity:1;fill-rule:nonzero;stroke:none"
         transform="matrix(0.13333333,0,0,-0.13333333,0,239.38667)" />
      <path
         id="path24"
         d="m 3779.62,1034.79 -384.68,616.48 H 3187.6 V 744.262 h 187.78 v 616.458 l 384.68,-616.458 h 206.08 v 907.008 h -186.52 v -616.48"
         style="fill:#1a1818;fill-opacity:1;fill-rule:nonzero;stroke:none"
         transform="matrix(0.13333333,0,0,-0.13333333,0,239.38667)" />
      <path
         id="path25"
         d="m 6922.9,973.82 c -13.65,-41.89 -36.81,-90.933 -64.88,-115.711 -40.69,-35.941 -98.78,-53.882 -168.91,-53.882 -83.96,0 -145.86,23.363 -185.67,70.113 -39.82,46.734 -59.72,119 -59.72,216.83 v 220.73 c 0,94.33 20.55,164.45 61.68,210.33 41.09,45.88 102.77,68.82 185.01,68.82 67.51,0 122.51,-16.03 161.47,-48.05 30.23,-24.87 54.98,-74.81 69.05,-120.55 h 79.06 c -18.34,69.56 -53.07,137.45 -97.52,174.45 -51.51,42.85 -122.91,64.26 -212.06,64.26 -70.11,0 -129.19,-13.43 -177.22,-40.25 -48.05,-26.84 -84.62,-66.21 -109.72,-118.15 -25.12,-51.94 -37.65,-115.56 -37.65,-190.86 v -220.73 c 0,-77.91 12.33,-143.479 37,-196.713 24.67,-53.223 61.03,-93.273 109.07,-120.086 48.05,-26.859 107.11,-40.262 177.22,-40.262 91.75,0 166.96,23.571 220.21,70.762 41.98,37.207 73.72,104 90.67,168.949 h -77.09"
         style="fill:#1a1818;fill-opacity:1;fill-rule:nonzero;stroke:none"
         transform="matrix(0.13333333,0,0,-0.13333333,0,239.38667)" />
      <path
         id="path26"
         d="M 4689.97,920.137 C 4650.56,874.723 4571.8,891.996 4571.8,891.996 l -135.87,25.145 c -38.51,8.394 -69.49,28.269 -92.19,51.957 -35.31,36.802 -53.23,93.972 -53.23,169.932 v 145.31 c 0,75.93 17.92,133.12 53.23,169.95 35.2,36.67 89.4,55.28 161.13,55.28 71.73,0 125.93,-18.6 161.12,-55.27 35.33,-36.85 53.24,-94.03 53.24,-169.96 v -276.08 c 0,-37.264 -2.3,-57.041 -29.26,-88.123 m 217.27,-90.231 -86.46,16.008 c 14.82,16.481 28.47,35.414 39.43,54.926 31.21,55.445 47.03,123.31 47.03,201.7 v 186.65 c 0,79.2 -15.83,147.28 -47.04,202.36 -31.43,55.43 -77.86,98.12 -137.97,126.89 -59.48,28.44 -132.61,42.85 -217.36,42.85 -83.9,0 -156.61,-14.41 -216.09,-42.86 -60.1,-28.75 -106.73,-71.42 -138.56,-126.81 -31.68,-55.09 -47.73,-123.19 -47.73,-202.43 v -186.65 c 0,-78.41 16.05,-146.313 47.69,-201.759 31.83,-55.836 78.45,-98.73 138.6,-127.492 27.24,-13.039 57.99,-23.277 91.74,-30.519 l 526.72,-97.489 v 184.625"
         style="fill:#1a1818;fill-opacity:1;fill-rule:nonzero;stroke:none"
         transform="matrix(0.13333333,0,0,-0.13333333,0,239.38667)" />
      <path
         id="path27"
         d="m 2435.26,211.219 8.97,25.39 h 118.36 l 8.95,-25.39 z m -44.05,-67.207 96.33,261.359 h 33.23 l 95.96,-261.359 h -33.24 l -79.53,222.16 -79.9,-222.16 h -32.85"
         style="fill:#1a1818;fill-opacity:1;fill-rule:nonzero;stroke:none"
         transform="matrix(0.13333333,0,0,-0.13333333,0,239.38667)" />
      <path
         id="path28"
         d="m 2755.24,144.012 v 261.359 h 31.37 v -236.34 h 121.72 v -25.019 h -153.09"
         style="fill:#1a1818;fill-opacity:1;fill-rule:nonzero;stroke:none"
         transform="matrix(0.13333333,0,0,-0.13333333,0,239.38667)" />
      <path
         id="path29"
         d="m 3018.47,139.531 c -14.45,0 -27.08,2.867 -37.91,8.59 -10.82,5.719 -19.17,14.559 -25.01,26.508 -5.85,11.949 -8.77,26.883 -8.77,44.801 v 112.761 h 31.36 V 222.789 c 0,-18.66 4.1,-32.73 12.32,-42.187 8.22,-9.461 19.79,-14.192 34.72,-14.192 10.46,0 19.92,2.551 28.38,7.66 8.46,5.102 15.12,12.442 19.97,22.032 4.86,9.578 7.29,21.468 7.29,35.648 v 100.441 h 31.36 V 144.012 h -28.37 l -1.87,32.859 c -5.73,-11.711 -14.19,-20.851 -25.39,-27.441 -11.2,-6.59 -23.9,-9.899 -38.08,-9.899"
         style="fill:#1a1818;fill-opacity:1;fill-rule:nonzero;stroke:none"
         transform="matrix(0.13333333,0,0,-0.13333333,0,239.38667)" />
      <path
         id="path30"
         d="m 3164.08,144.012 v 188.179 h 28.38 l 1.86,-26.882 c 5.98,9.711 14.01,17.363 24.09,22.961 10.07,5.601 21.09,8.402 33.04,8.402 9.71,0 18.48,-1.301 26.32,-3.922 7.84,-2.621 14.81,-6.602 20.91,-11.941 6.1,-5.36 10.89,-12.137 14.37,-20.348 6.48,11.437 15.43,20.348 26.89,26.687 11.45,6.34 23.53,9.524 36.22,9.524 14.68,0 27.37,-2.922 38.08,-8.774 10.7,-5.847 19.04,-14.687 25.02,-26.519 5.97,-11.809 8.96,-26.809 8.96,-44.988 V 144.012 h -31 v 109.019 c 0,18.918 -3.85,33.11 -11.57,42.571 -7.71,9.457 -18.67,14.187 -32.86,14.187 -9.71,0 -18.42,-2.559 -26.13,-7.648 -7.72,-5.11 -13.81,-12.512 -18.29,-22.219 -4.48,-9.711 -6.72,-21.652 -6.72,-35.844 V 144.012 h -31.37 v 109.019 c 0,18.918 -3.86,33.11 -11.57,42.571 -7.73,9.457 -18.55,14.187 -32.48,14.187 -9.46,0 -18.06,-2.559 -25.77,-7.648 -7.72,-5.11 -13.81,-12.512 -18.29,-22.219 -4.49,-9.711 -6.72,-21.652 -6.72,-35.844 V 144.012 h -31.37"
         style="fill:#1a1818;fill-opacity:1;fill-rule:nonzero;stroke:none"
         transform="matrix(0.13333333,0,0,-0.13333333,0,239.38667)" />
      <path
         id="path31"
         d="m 3499.73,144.012 v 188.179 h 31.37 V 144.012 Z m 15.69,228.136 c -6.22,0 -11.39,2.051 -15.5,6.153 -4.1,4.109 -6.16,9.269 -6.16,15.5 0,6.219 2.06,11.258 6.16,15.109 4.11,3.86 9.28,5.789 15.5,5.789 5.97,0 11.07,-1.929 15.3,-5.789 4.24,-3.851 6.35,-8.89 6.35,-15.109 0,-6.231 -2.11,-11.391 -6.35,-15.5 -4.23,-4.102 -9.33,-6.153 -15.3,-6.153"
         style="fill:#1a1818;fill-opacity:1;fill-rule:nonzero;stroke:none"
         transform="matrix(0.13333333,0,0,-0.13333333,0,239.38667)" />
      <path
         id="path32"
         d="m 3586.36,144.012 v 188.179 h 28.37 l 1.5,-32.863 c 5.98,11.703 14.49,20.852 25.57,27.442 11.08,6.601 23.72,9.902 37.91,9.902 14.67,0 27.37,-2.922 38.07,-8.774 10.7,-5.847 19.04,-14.687 25.02,-26.519 5.98,-11.809 8.96,-26.809 8.96,-44.988 V 144.012 h -31.36 v 109.019 c 0,18.918 -4.17,33.11 -12.51,42.571 -8.34,9.457 -20.1,14.187 -35.28,14.187 -10.45,0 -19.79,-2.559 -28,-7.648 -8.22,-5.11 -14.76,-12.461 -19.61,-22.039 -4.86,-9.582 -7.28,-21.461 -7.28,-35.653 V 144.012 h -31.36"
         style="fill:#1a1818;fill-opacity:1;fill-rule:nonzero;stroke:none"
         transform="matrix(0.13333333,0,0,-0.13333333,0,239.38667)" />
      <path
         id="path33"
         d="m 3866.77,166.039 c 8.7,0 16.61,1.813 23.7,5.41 7.1,3.621 13.12,8.602 18.11,14.942 4.97,6.347 8.77,13.371 11.39,21.097 2.61,7.711 3.92,15.801 3.92,24.262 v 1.129 h -47.05 c -12.19,0 -22.03,-1.438 -29.5,-4.301 -7.46,-2.859 -12.82,-6.84 -16.05,-11.937 -3.24,-5.11 -4.86,-10.903 -4.86,-17.371 0,-6.711 1.56,-12.571 4.67,-17.54 3.12,-4.992 7.72,-8.839 13.82,-11.582 6.09,-2.738 13.38,-4.109 21.85,-4.109 z m -4.87,-26.508 c -15.18,0 -27.87,2.68 -38.07,8.028 -10.22,5.351 -17.81,12.453 -22.78,21.281 -4.99,8.832 -7.47,18.48 -7.47,28.941 0,12.699 3.29,23.457 9.89,32.289 6.6,8.828 15.93,15.559 28.01,20.168 12.07,4.602 26.32,6.91 42.75,6.91 h 49.66 c 0,11.692 -1.81,21.461 -5.42,29.301 -3.61,7.84 -8.83,13.75 -15.68,17.742 -6.84,3.977 -15.37,5.969 -25.57,5.969 -11.95,0 -22.28,-2.988 -30.99,-8.961 -8.72,-5.969 -14.07,-14.808 -16.06,-26.508 h -32.11 c 1.5,13.438 6.03,24.7 13.63,33.789 7.59,9.09 17.23,16.059 28.93,20.911 11.7,4.847 23.9,7.281 36.6,7.281 17.42,0 31.92,-3.184 43.49,-9.524 11.57,-6.339 20.23,-15.187 25.95,-26.507 5.72,-11.332 8.59,-24.711 8.59,-40.141 V 144.012 h -28.01 l -1.86,33.226 c -2.49,-5.218 -5.66,-10.136 -9.52,-14.738 -3.86,-4.609 -8.34,-8.602 -13.44,-11.961 -5.11,-3.359 -11.02,-6.027 -17.73,-8.019 -6.72,-1.989 -14.32,-2.989 -22.79,-2.989"
         style="fill:#1a1818;fill-opacity:1;fill-rule:nonzero;stroke:none"
         transform="matrix(0.13333333,0,0,-0.13333333,0,239.38667)" />
      <path
         id="path34"
         d="m 4136.33,170.148 h 44.8 c 25.39,0 45.61,4.161 60.67,12.5 15.06,8.34 25.83,20.293 32.3,35.852 6.46,15.551 9.71,34.039 9.71,55.441 0,21.911 -3.25,40.707 -9.71,56.379 -6.47,15.68 -17.24,27.75 -32.3,36.219 -15.06,8.461 -35.28,12.699 -60.67,12.699 h -44.8 z m -31.37,-26.136 v 261.359 h 76.91 c 30.63,0 55.88,-5.301 75.8,-15.871 19.92,-10.578 34.66,-25.641 44.24,-45.18 9.58,-19.539 14.38,-43 14.38,-70.379 0,-26.871 -4.8,-50.031 -14.38,-69.441 -9.58,-19.422 -24.32,-34.352 -44.24,-44.809 -19.92,-10.453 -45.17,-15.679 -75.8,-15.679 h -76.91"
         style="fill:#1a1818;fill-opacity:1;fill-rule:nonzero;stroke:none"
         transform="matrix(0.13333333,0,0,-0.13333333,0,239.38667)" />
      <path
         id="path35"
         d="m 4426.07,166.039 c 8.7,0 16.61,1.813 23.7,5.41 7.1,3.621 13.13,8.602 18.12,14.942 4.97,6.347 8.77,13.371 11.39,21.097 2.6,7.711 3.91,15.801 3.91,24.262 v 1.129 h -47.04 c -12.2,0 -22.03,-1.438 -29.5,-4.301 -7.46,-2.859 -12.82,-6.84 -16.06,-11.937 -3.23,-5.11 -4.85,-10.903 -4.85,-17.371 0,-6.711 1.55,-12.571 4.67,-17.54 3.11,-4.992 7.71,-8.839 13.82,-11.582 6.09,-2.738 13.38,-4.109 21.84,-4.109 z m -4.86,-26.508 c -15.19,0 -27.87,2.68 -38.08,8.028 -10.21,5.351 -17.8,12.453 -22.77,21.281 -4.99,8.832 -7.47,18.48 -7.47,28.941 0,12.699 3.29,23.457 9.89,32.289 6.59,8.828 15.93,15.559 28.01,20.168 12.07,4.602 26.32,6.91 42.74,6.91 h 49.66 c 0,11.692 -1.8,21.461 -5.41,29.301 -3.61,7.84 -8.84,13.75 -15.68,17.742 -6.85,3.977 -15.37,5.969 -25.58,5.969 -11.94,0 -22.27,-2.988 -30.98,-8.961 -8.73,-5.969 -14.08,-14.808 -16.06,-26.508 h -32.11 c 1.5,13.438 6.03,24.7 13.62,33.789 7.59,9.09 17.24,16.059 28.94,20.911 11.7,4.847 23.9,7.281 36.59,7.281 17.42,0 31.93,-3.184 43.5,-9.524 11.57,-6.339 20.22,-15.187 25.95,-26.507 5.72,-11.332 8.59,-24.711 8.59,-40.141 V 144.012 h -28.01 l -1.86,33.226 c -2.49,-5.218 -5.67,-10.136 -9.53,-14.738 -3.85,-4.609 -8.34,-8.602 -13.43,-11.961 -5.11,-3.359 -11.02,-6.027 -17.74,-8.019 -6.72,-1.989 -14.31,-2.989 -22.78,-2.989"
         style="fill:#1a1818;fill-opacity:1;fill-rule:nonzero;stroke:none"
         transform="matrix(0.13333333,0,0,-0.13333333,0,239.38667)" />
      <path
         id="path36"
         d="m 4631.79,144.012 c -11.21,0 -20.91,1.738 -29.13,5.226 -8.21,3.481 -14.5,9.391 -18.85,17.742 -4.36,8.329 -6.54,19.598 -6.54,33.79 v 104.91 h -32.85 v 26.511 h 32.85 l 4.12,45.547 h 27.25 v -45.547 h 54.51 V 305.68 h -54.51 V 200.77 c 0,-11.711 2.36,-19.61 7.09,-23.711 4.73,-4.11 13.08,-6.161 25.02,-6.161 h 20.17 v -26.886 h -29.13"
         style="fill:#1a1818;fill-opacity:1;fill-rule:nonzero;stroke:none"
         transform="matrix(0.13333333,0,0,-0.13333333,0,239.38667)" />
      <path
         id="path37"
         d="m 4770.31,166.039 c 8.7,0 16.61,1.813 23.7,5.41 7.1,3.621 13.13,8.602 18.12,14.942 4.97,6.347 8.77,13.371 11.38,21.097 2.61,7.711 3.92,15.801 3.92,24.262 v 1.129 h -47.04 c -12.2,0 -22.03,-1.438 -29.5,-4.301 -7.46,-2.859 -12.83,-6.84 -16.06,-11.937 -3.23,-5.11 -4.85,-10.903 -4.85,-17.371 0,-6.711 1.55,-12.571 4.67,-17.54 3.11,-4.992 7.71,-8.839 13.82,-11.582 6.09,-2.738 13.37,-4.109 21.84,-4.109 z m -4.86,-26.508 c -15.19,0 -27.87,2.68 -38.08,8.028 -10.21,5.351 -17.8,12.453 -22.77,21.281 -4.99,8.832 -7.47,18.48 -7.47,28.941 0,12.699 3.29,23.457 9.89,32.289 6.59,8.828 15.93,15.559 28.01,20.168 12.07,4.602 26.32,6.91 42.74,6.91 h 49.66 c 0,11.692 -1.81,21.461 -5.41,29.301 -3.61,7.84 -8.84,13.75 -15.68,17.742 -6.85,3.977 -15.37,5.969 -25.58,5.969 -11.94,0 -22.28,-2.988 -30.99,-8.961 -8.72,-5.969 -14.07,-14.808 -16.05,-26.508 h -32.11 c 1.49,13.438 6.03,24.7 13.62,33.789 7.59,9.09 17.24,16.059 28.94,20.911 11.7,4.847 23.89,7.281 36.59,7.281 17.42,0 31.92,-3.184 43.5,-9.524 11.57,-6.339 20.22,-15.187 25.94,-26.507 5.73,-11.332 8.6,-24.711 8.6,-40.141 V 144.012 h -28.01 l -1.87,33.226 c -2.49,-5.218 -5.66,-10.136 -9.52,-14.738 -3.85,-4.609 -8.34,-8.602 -13.43,-11.961 -5.11,-3.359 -11.02,-6.027 -17.74,-8.019 -6.72,-1.989 -14.32,-2.989 -22.78,-2.989"
         style="fill:#1a1818;fill-opacity:1;fill-rule:nonzero;stroke:none"
         transform="matrix(0.13333333,0,0,-0.13333333,0,239.38667)" />
      <path
         id="path38"
         d="m 4907.33,144.012 v 188.179 h 28.38 l 1.87,-26.882 c 5.97,9.711 14,17.363 24.08,22.961 10.08,5.601 21.09,8.402 33.05,8.402 9.7,0 18.47,-1.301 26.31,-3.922 7.85,-2.621 14.81,-6.602 20.91,-11.941 6.11,-5.36 10.89,-12.137 14.38,-20.348 6.47,11.437 15.43,20.348 26.88,26.687 11.45,6.34 23.53,9.524 36.22,9.524 14.68,0 27.38,-2.922 38.08,-8.774 10.7,-5.847 19.04,-14.687 25.02,-26.519 5.97,-11.809 8.96,-26.809 8.96,-44.988 V 144.012 h -30.99 v 109.019 c 0,18.918 -3.86,33.11 -11.58,42.571 -7.71,9.457 -18.67,14.187 -32.86,14.187 -9.7,0 -18.41,-2.559 -26.13,-7.648 -7.71,-5.11 -13.81,-12.512 -18.29,-22.219 -4.48,-9.711 -6.72,-21.652 -6.72,-35.844 V 144.012 h -31.37 v 109.019 c 0,18.918 -3.85,33.11 -11.57,42.571 -7.72,9.457 -18.54,14.187 -32.48,14.187 -9.46,0 -18.06,-2.559 -25.77,-7.648 -7.72,-5.11 -13.81,-12.512 -18.29,-22.219 -4.48,-9.711 -6.72,-21.652 -6.72,-35.844 V 144.012 h -31.37"
         style="fill:#1a1818;fill-opacity:1;fill-rule:nonzero;stroke:none"
         transform="matrix(0.13333333,0,0,-0.13333333,0,239.38667)" />
      <path
         id="path39"
         d="m 5306.1,166.039 c 8.7,0 16.61,1.813 23.7,5.41 7.1,3.621 13.13,8.602 18.12,14.942 4.97,6.347 8.77,13.371 11.39,21.097 2.6,7.711 3.91,15.801 3.91,24.262 v 1.129 h -47.04 c -12.2,0 -22.03,-1.438 -29.5,-4.301 -7.46,-2.859 -12.82,-6.84 -16.06,-11.937 -3.23,-5.11 -4.85,-10.903 -4.85,-17.371 0,-6.711 1.55,-12.571 4.67,-17.54 3.11,-4.992 7.71,-8.839 13.82,-11.582 6.09,-2.738 13.38,-4.109 21.84,-4.109 z m -4.86,-26.508 c -15.19,0 -27.87,2.68 -38.08,8.028 -10.21,5.351 -17.8,12.453 -22.77,21.281 -4.99,8.832 -7.47,18.48 -7.47,28.941 0,12.699 3.29,23.457 9.89,32.289 6.59,8.828 15.93,15.559 28.01,20.168 12.07,4.602 26.32,6.91 42.74,6.91 h 49.66 c 0,11.692 -1.81,21.461 -5.41,29.301 -3.61,7.84 -8.84,13.75 -15.68,17.742 -6.85,3.977 -15.37,5.969 -25.58,5.969 -11.94,0 -22.27,-2.988 -30.99,-8.961 -8.72,-5.969 -14.07,-14.808 -16.05,-26.508 h -32.11 c 1.49,13.438 6.03,24.7 13.62,33.789 7.59,9.09 17.24,16.059 28.94,20.911 11.7,4.847 23.9,7.281 36.59,7.281 17.42,0 31.93,-3.184 43.5,-9.524 11.57,-6.339 20.22,-15.187 25.94,-26.507 5.73,-11.332 8.6,-24.711 8.6,-40.141 V 144.012 h -28.01 l -1.86,33.226 c -2.49,-5.218 -5.67,-10.136 -9.53,-14.738 -3.85,-4.609 -8.34,-8.602 -13.43,-11.961 -5.11,-3.359 -11.02,-6.027 -17.74,-8.019 -6.72,-1.989 -14.31,-2.989 -22.78,-2.989"
         style="fill:#1a1818;fill-opacity:1;fill-rule:nonzero;stroke:none"
         transform="matrix(0.13333333,0,0,-0.13333333,0,239.38667)" />
      <path
         id="path40"
         d="m 5511.81,144.012 c -11.2,0 -20.9,1.738 -29.12,5.226 -8.21,3.481 -14.5,9.391 -18.85,17.742 -4.36,8.329 -6.54,19.598 -6.54,33.79 v 104.91 h -32.85 v 26.511 h 32.85 l 4.11,45.547 h 27.26 v -45.547 h 54.51 V 305.68 h -54.51 V 200.77 c 0,-11.711 2.36,-19.61 7.09,-23.711 4.73,-4.11 13.08,-6.161 25.02,-6.161 h 20.17 v -26.886 h -29.14"
         style="fill:#1a1818;fill-opacity:1;fill-rule:nonzero;stroke:none"
         transform="matrix(0.13333333,0,0,-0.13333333,0,239.38667)" />
      <path
         id="path41"
         d="m 5587.23,144.012 v 188.179 h 31.37 V 144.012 Z m 15.69,228.136 c -6.22,0 -11.39,2.051 -15.5,6.153 -4.1,4.109 -6.16,9.269 -6.16,15.5 0,6.219 2.06,11.258 6.16,15.109 4.11,3.86 9.28,5.789 15.5,5.789 5.97,0 11.07,-1.929 15.3,-5.789 4.24,-3.851 6.35,-8.89 6.35,-15.109 0,-6.231 -2.11,-11.391 -6.35,-15.5 -4.23,-4.102 -9.33,-6.153 -15.3,-6.153"
         style="fill:#1a1818;fill-opacity:1;fill-rule:nonzero;stroke:none"
         transform="matrix(0.13333333,0,0,-0.13333333,0,239.38667)" />
      <path
         id="path42"
         d="m 5758.61,139.531 c -17.67,0 -33.54,4.11 -47.61,12.321 -14.06,8.218 -25.07,19.726 -33.03,34.539 -7.97,14.808 -11.96,31.929 -11.96,51.339 0,19.911 3.99,37.211 11.96,51.899 7.96,14.68 18.97,26.191 33.03,34.543 14.07,8.328 29.94,12.5 47.61,12.5 22.4,0 41.08,-5.781 56.01,-17.363 14.93,-11.579 24.39,-27.071 28.38,-46.481 h -32.11 c -2.49,11.692 -8.6,20.774 -18.3,27.25 -9.71,6.473 -21.16,9.711 -34.35,9.711 -10.7,0 -20.6,-2.68 -29.69,-8.027 -9.08,-5.364 -16.42,-13.383 -22.02,-24.082 -5.6,-10.711 -8.41,-23.891 -8.41,-39.578 0,-11.704 1.62,-22.09 4.86,-31.184 3.23,-9.078 7.59,-16.609 13.07,-22.59 5.47,-5.957 11.89,-10.508 19.23,-13.617 7.34,-3.121 14.99,-4.672 22.96,-4.672 8.97,0 17.05,1.43 24.27,4.301 7.22,2.851 13.31,7.148 18.29,12.879 4.98,5.722 8.34,12.441 10.09,20.16 H 5843 c -3.99,-18.918 -13.51,-34.289 -28.57,-46.109 -15.06,-11.821 -33.67,-17.739 -55.82,-17.739"
         style="fill:#1a1818;fill-opacity:1;fill-rule:nonzero;stroke:none"
         transform="matrix(0.13333333,0,0,-0.13333333,0,239.38667)" />
      <path
         id="path43"
         d="m 5958.38,139.531 c -15.44,0 -29.01,2.617 -40.71,7.84 -11.69,5.231 -20.96,12.508 -27.81,21.848 -6.85,9.332 -11.01,20.351 -12.51,33.043 h 32.11 c 1.24,-6.481 3.86,-12.453 7.84,-17.934 3.98,-5.476 9.4,-9.887 16.24,-13.25 6.85,-3.359 15.25,-5.039 25.21,-5.039 8.71,0 15.93,1.313 21.65,3.922 5.72,2.609 10.02,6.16 12.88,10.641 2.86,4.476 4.3,9.339 4.3,14.558 0,7.719 -1.81,13.57 -5.41,17.551 -3.62,3.988 -8.91,7.16 -15.87,9.519 -6.98,2.372 -15.44,4.418 -25.39,6.168 -8.22,1.493 -16.31,3.481 -24.27,5.973 -7.97,2.481 -15.07,5.777 -21.29,9.891 -6.22,4.109 -11.14,9.136 -14.75,15.117 -3.61,5.98 -5.41,13.312 -5.41,22.031 0,10.711 2.81,20.231 8.4,28.57 5.61,8.329 13.51,14.872 23.71,19.598 10.21,4.723 22.15,7.094 35.84,7.094 20.17,0 36.47,-4.863 48.92,-14.563 12.44,-9.711 19.78,-23.769 22.03,-42.187 h -31 c -1.25,9.449 -5.29,16.848 -12.12,22.219 -6.86,5.347 -16.24,8.019 -28.2,8.019 -11.7,0 -20.59,-2.371 -26.7,-7.101 -6.09,-4.719 -9.14,-10.938 -9.14,-18.661 0,-4.98 1.68,-9.398 5.04,-13.25 3.36,-3.867 8.4,-7.16 15.12,-9.898 6.72,-2.738 14.8,-4.98 24.27,-6.719 12.45,-2.242 23.77,-5.23 33.98,-8.961 10.2,-3.742 18.48,-9.269 24.82,-16.621 6.35,-7.34 9.53,-17.73 9.53,-31.168 0,-11.711 -2.93,-21.902 -8.77,-30.621 -5.86,-8.719 -14.13,-15.488 -24.84,-20.351 -10.7,-4.848 -23.28,-7.278 -37.7,-7.278"
         style="fill:#1a1818;fill-opacity:1;fill-rule:nonzero;stroke:none"
         transform="matrix(0.13333333,0,0,-0.13333333,0,239.38667)" />
      <path
         id="path44"
         d="m 6289.54,139.531 c -25.39,0 -47.35,5.66 -65.9,16.989 -18.54,11.332 -32.79,27.128 -42.75,47.421 -9.95,20.289 -14.93,43.868 -14.93,70.75 0,26.887 4.98,50.457 14.93,70.758 9.96,20.281 24.21,36.082 42.75,47.41 18.55,11.332 40.51,16.993 65.9,16.993 29.87,0 54.14,-7.09 72.81,-21.282 18.66,-14.191 30.62,-34.23 35.84,-60.121 h -34.72 c -3.99,16.192 -12.08,29.18 -24.27,39.031 -12.2,9.821 -28.75,14.739 -49.66,14.739 -18.42,0 -34.53,-4.289 -48.35,-12.879 -13.82,-8.59 -24.45,-20.91 -31.92,-36.961 -7.46,-16.059 -11.21,-35.277 -11.21,-57.688 0,-22.402 3.75,-41.632 11.21,-57.679 7.47,-16.063 18.1,-28.383 31.92,-36.961 13.82,-8.602 29.93,-12.891 48.35,-12.891 20.91,0 37.46,4.789 49.66,14.379 12.19,9.582 20.28,22.332 24.27,38.27 h 34.72 c -5.22,-25.149 -17.18,-44.797 -35.84,-58.989 -18.67,-14.191 -42.94,-21.289 -72.81,-21.289"
         style="fill:#1a1818;fill-opacity:1;fill-rule:nonzero;stroke:none"
         transform="matrix(0.13333333,0,0,-0.13333333,0,239.38667)" />
      <path
         id="path45"
         d="m 6526.26,166.41 c 10.7,0 20.65,2.68 29.87,8.031 9.2,5.348 16.67,13.379 22.4,24.079 5.73,10.71 8.59,23.902 8.59,39.582 0,15.929 -2.81,29.179 -8.4,39.769 -5.61,10.57 -12.95,18.527 -22.03,23.891 -9.09,5.347 -19.11,8.027 -30.06,8.027 -10.45,0 -20.35,-2.68 -29.68,-8.027 -9.33,-5.364 -16.81,-13.321 -22.4,-23.891 -5.61,-10.59 -8.41,-23.84 -8.41,-39.769 0,-15.68 2.8,-28.872 8.41,-39.582 5.59,-10.7 12.94,-18.731 22.02,-24.079 9.09,-5.351 18.99,-8.031 29.69,-8.031 z m -0.37,-26.879 c -17.43,0 -33.11,4.047 -47.05,12.141 -13.94,8.078 -24.9,19.539 -32.86,34.34 -7.96,14.816 -11.95,32.047 -11.95,51.718 0,20.161 4.04,37.649 12.14,52.45 8.09,14.82 19.16,26.261 33.23,34.359 14.06,8.082 29.81,12.133 47.23,12.133 17.92,0 33.79,-4.051 47.61,-12.133 13.81,-8.098 24.76,-19.539 32.85,-34.359 8.08,-14.801 12.14,-32.168 12.14,-52.078 0,-19.922 -4.11,-37.274 -12.33,-52.09 -8.21,-14.801 -19.28,-26.262 -33.22,-34.34 -13.95,-8.094 -29.87,-12.141 -47.79,-12.141"
         style="fill:#1a1818;fill-opacity:1;fill-rule:nonzero;stroke:none"
         transform="matrix(0.13333333,0,0,-0.13333333,0,239.38667)" />
      <path
         id="path46"
         d="m 6663.28,144.012 v 188.179 h 28.38 l 1.86,-26.882 c 5.98,9.711 14.01,17.363 24.09,22.961 10.07,5.601 21.09,8.402 33.04,8.402 9.71,0 18.48,-1.301 26.32,-3.922 7.84,-2.621 14.81,-6.602 20.91,-11.941 6.1,-5.36 10.89,-12.137 14.37,-20.348 6.48,11.437 15.43,20.348 26.89,26.687 11.44,6.34 23.52,9.524 36.22,9.524 14.68,0 27.37,-2.922 38.08,-8.774 10.7,-5.847 19.04,-14.687 25.02,-26.519 5.97,-11.809 8.96,-26.809 8.96,-44.988 V 144.012 h -31 v 109.019 c 0,18.918 -3.85,33.11 -11.57,42.571 -7.71,9.457 -18.67,14.187 -32.86,14.187 -9.71,0 -18.42,-2.559 -26.13,-7.648 -7.72,-5.11 -13.81,-12.512 -18.29,-22.219 -4.49,-9.711 -6.72,-21.652 -6.72,-35.844 V 144.012 h -31.37 v 109.019 c 0,18.918 -3.86,33.11 -11.57,42.571 -7.73,9.457 -18.55,14.187 -32.48,14.187 -9.46,0 -18.06,-2.559 -25.77,-7.648 -7.72,-5.11 -13.81,-12.512 -18.29,-22.219 -4.49,-9.711 -6.72,-21.652 -6.72,-35.844 V 144.012 h -31.37"
         style="fill:#1a1818;fill-opacity:1;fill-rule:nonzero;stroke:none"
         transform="matrix(0.13333333,0,0,-0.13333333,0,239.38667)" />
      <path
         id="path47"
         d="m 7090.79,166.781 c 12.2,0 23.09,2.989 32.68,8.969 9.58,5.98 17.04,14.25 22.4,24.828 5.35,10.582 8.02,23.082 8.02,37.524 0,14.187 -2.67,26.628 -8.02,37.339 -5.36,10.7 -12.82,19.039 -22.4,25.02 -9.59,5.969 -20.48,8.949 -32.68,8.949 -12.44,0 -23.4,-2.98 -32.85,-8.949 -9.46,-5.981 -16.81,-14.32 -22.03,-25.02 -5.23,-10.711 -7.85,-23.152 -7.85,-37.339 0,-14.442 2.62,-26.942 7.85,-37.524 5.22,-10.578 12.57,-18.848 22.03,-24.828 9.45,-5.98 20.41,-8.969 32.85,-8.969 z M 6995.96,61.8711 V 332.191 h 28.37 l 2.62,-30.613 c 3.98,5.973 9.08,11.633 15.3,16.981 6.23,5.351 13.7,9.711 22.41,13.07 8.71,3.359 18.79,5.043 30.24,5.043 18.16,0 34.03,-4.363 47.61,-13.07 13.56,-8.711 24.14,-20.481 31.74,-35.282 7.58,-14.82 11.38,-31.679 11.38,-50.59 0,-18.921 -3.8,-35.789 -11.38,-50.589 -7.6,-14.821 -18.25,-26.45 -31.93,-34.922 -13.69,-8.449 -29.63,-12.688 -47.79,-12.688 -15.19,0 -28.63,3.11 -40.32,9.328 -11.71,6.219 -20.67,14.95 -26.89,26.153 V 61.8711 h -31.36"
         style="fill:#1a1818;fill-opacity:1;fill-rule:nonzero;stroke:none"
         transform="matrix(0.13333333,0,0,-0.13333333,0,239.38667)" />
      <path
         id="path48"
         d="m 7296.15,166.039 c 8.7,0 16.61,1.813 23.7,5.41 7.1,3.621 13.13,8.602 18.12,14.942 4.97,6.347 8.77,13.371 11.38,21.097 2.61,7.711 3.92,15.801 3.92,24.262 v 1.129 h -47.04 c -12.2,0 -22.03,-1.438 -29.5,-4.301 -7.46,-2.859 -12.83,-6.84 -16.06,-11.937 -3.23,-5.11 -4.85,-10.903 -4.85,-17.371 0,-6.711 1.55,-12.571 4.67,-17.54 3.11,-4.992 7.71,-8.839 13.82,-11.582 6.09,-2.738 13.37,-4.109 21.84,-4.109 z m -4.86,-26.508 c -15.19,0 -27.87,2.68 -38.08,8.028 -10.21,5.351 -17.8,12.453 -22.77,21.281 -4.99,8.832 -7.47,18.48 -7.47,28.941 0,12.699 3.29,23.457 9.89,32.289 6.59,8.828 15.93,15.559 28.01,20.168 12.07,4.602 26.32,6.91 42.74,6.91 h 49.66 c 0,11.692 -1.81,21.461 -5.41,29.301 -3.61,7.84 -8.84,13.75 -15.68,17.742 -6.85,3.977 -15.37,5.969 -25.58,5.969 -11.94,0 -22.28,-2.988 -30.99,-8.961 -8.72,-5.969 -14.07,-14.808 -16.05,-26.508 h -32.11 c 1.49,13.438 6.03,24.7 13.62,33.789 7.59,9.09 17.24,16.059 28.94,20.911 11.7,4.847 23.89,7.281 36.59,7.281 17.42,0 31.92,-3.184 43.5,-9.524 11.57,-6.339 20.22,-15.187 25.94,-26.507 5.73,-11.332 8.6,-24.711 8.6,-40.141 V 144.012 h -28.01 l -1.87,33.226 c -2.49,-5.218 -5.66,-10.136 -9.52,-14.738 -3.85,-4.609 -8.34,-8.602 -13.43,-11.961 -5.11,-3.359 -11.02,-6.027 -17.74,-8.019 -6.72,-1.989 -14.32,-2.989 -22.78,-2.989"
         style="fill:#1a1818;fill-opacity:1;fill-rule:nonzero;stroke:none"
         transform="matrix(0.13333333,0,0,-0.13333333,0,239.38667)" />
      <path
         id="path49"
         d="m 7433.17,144.012 v 188.179 h 28.38 l 1.5,-32.863 c 5.97,11.703 14.49,20.852 25.57,27.442 11.08,6.601 23.71,9.902 37.9,9.902 14.68,0 27.37,-2.922 38.08,-8.774 10.7,-5.847 19.04,-14.687 25.02,-26.519 5.97,-11.809 8.95,-26.809 8.95,-44.988 V 144.012 h -31.35 v 109.019 c 0,18.918 -4.17,33.11 -12.51,42.571 -8.34,9.457 -20.1,14.187 -35.29,14.187 -10.45,0 -19.78,-2.559 -28,-7.648 -8.21,-5.11 -14.75,-12.461 -19.61,-22.039 -4.85,-9.582 -7.27,-21.461 -7.27,-35.653 V 144.012 h -31.37"
         style="fill:#1a1818;fill-opacity:1;fill-rule:nonzero;stroke:none"
         transform="matrix(0.13333333,0,0,-0.13333333,0,239.38667)" />
      <path
         id="path50"
         d="m 7662.42,61.8711 45.93,103.0509 h -10.83 l -73.93,167.269 h 33.98 l 61.23,-143.75 64.6,143.75 h 32.48 L 7695.28,61.8711 h -32.86"
         style="fill:#1a1818;fill-opacity:1;fill-rule:nonzero;stroke:none"
         transform="matrix(0.13333333,0,0,-0.13333333,0,239.38667)" />
    </g>
  </g>
</svg>
